<svg xmlns="http://www.w3.org/2000/svg" viewBox="0 0 100 51.5">
  <g fill="#ffffff">
    <path d="M17.9 21.7c4.8 4.8 10.4 7.4 16.3 7.4 7.4 0 14.6-4.1 20-11.6 3.5-4.8 9.6-7.7 16.4-7.7 6.8 0 12.9 2.9 16.3 7.6l5.1 7.2 8-5.7-5.2-7.2C89.6 4.4 80.5 0 70.5 0c-9.9 0-19 4.4-24.3 11.7-3.5 4.9-7.8 7.6-12.1 7.6-4.2 0-8.4-2.7-12-7.7L15 1.8 7.1 7.6l7.1 9.8c1.2 1.6 2.4 3 3.7 4.3z"/>
    <path d="M69.6 22.5c-7.4 0-14.5 4.1-20 11.6-3.4 4.7-10.1 7.6-17.3 7.6-7.4 0-13.8-2.9-17.3-7.7l-7.1-9.8L0 30l7.1 9.8c.8 1.1 1.6 2.1 2.6 3 5.5 5.5 13.6 8.6 22.6 8.7 10.5 0 20-4.3 25.3-11.7 3.5-4.9 7.8-7.6 12.1-7.6 4.2 0 8.6 2.7 12 7.5l5.2 7.2 7.9-5.7-5.2-7.2c-5.4-7.4-12.6-11.5-20-11.5z"/>
  </g>
</svg>
