<svg xmlns="http://www.w3.org/2000/svg" viewBox="0 0 799.8 865.5">
  <g fill="#000000">
  <path d="M508.5 215.3h.1l4.7-.7c.2 0 .4-.2.6-.3l9.3-12.2c.2-.3.2-.7.1-1-.2-.3-.5-.5-.9-.4l-7.3 1.1c-.3 0-.5.2-.6.4l-6.7 11.8c-.2.3-.1.6 0 .9.1.3.4.4.7.4zM265.3 291.9c0-.2-.1-.4-.3-.6l-4.3-3.5c-.3-.3-.8-.3-1.2.1-5.2 5.4-6.8 11.9-4.2 16.9 1.9 3.7 5.8 5.9 10.5 5.9.8 0 1.6-.1 2.4-.2 8.8-1.3 16.3-7.8 22.7-19.8l36.5-67.9.3-.3c.1-.3.1-.6-.1-.8l-4.1-6.4c-.2-.4-.7-.5-1.1-.3-.1.1-11.3 5.5-19.6 6.8-1.1.2-6.7 1-11.2 1.6-2.5.4-4.7.7-5.3.8-12 1.8-20.3 9.6-20.3 19 0 4.7 2.6 8.5 6.9 10.2.4.1.7 0 1-.3l8.2-10.4c.2-.2.2-.5.2-.7-.1-.3-.3-.5-.5-.6-1.5-.6-3.3-.3-5 0-.9.1-2.3.4-2.6.2v-.1c0-3.7 4.3-8.3 10.8-9.2.8-.1 3.9-.5 7.2-.9 4.2-.5 8.9-1.1 10.1-1.3 3.7-.5 10.1-2.2 14.4-4.2l-34.1 63.6c-4.2 8-8.7 12.2-13.5 13-2.9.4-5.1-.3-6-2-1.1-2-.2-5 2.2-7.9-.1-.3 0-.5 0-.7zM367 243.7c3 0 5.4-3.8 5.4-6.8 0-1.5-.6-3.1-1.6-4-1.1-.9-2.5-1.5-4-1.3-3 .5-5.3 3.1-5.3 6.1 0 1.5.6 3.1 1.6 4 .8.7 1.9 1.4 3.1 1.4.2 0 .5.6.8.6zM473.7 227.2c.3 0 .6.6.8.6 3.1 0 5.4-3.7 5.4-6.7 0-1.5-.6-3.2-1.6-4.1-1.1-.9-2.5-1.4-4-1.2-3 .4-5.3 3.1-5.3 6.2 0 1.5.6 3 1.6 3.9.8.6 1.9 1.3 3.1 1.3z"/>
  <path d="M541.1 198.4c-.2-.3-.5-.4-.8-.4l-8 1.2c-.3 0-.5.2-.6.4l-7.3 13.7-6.8 1c-.3 0-.5.2-.6.4l-2.3 4.2c-.2.3-.1.6 0 .9.2.3.5.4.8.4l5.7-.8-12.8 27.6c-7.9 10.3-11.8 12.8-13.7 13.1-.5.1-.8 0-.8-.1 0 0-.4-.6.8-2.9l11.5-21.8c1.8-3.5 2-6.7.5-8.9-1.2-1.7-3.3-2.5-5.7-2.1-2.4.4-4.9 1.6-7.4 3.7l.3-.5c.2-.3.1-.6-.1-.9-.2-.3-.5-.4-.8-.4l-8 1.2c-.3 0-.5.2-.6.4l-12.5 23.4-.5.6c-6.7 8.8-11.5 13.4-14.3 13.8-.5.1-.8 0-.8-.1 0 0-.4-.6.8-2.9l17.1-32.3c.2-.3.1-.6-.1-.9-.2-.3-.5-.4-.8-.4l-8 1.2c-.3 0-.5.2-.6.4L452.3 254l-.5.6c-6.7 8.8-11.5 13.4-14.3 13.8-.5.1-.8 0-.8-.1 0 0-.4-.6.8-2.9l12.8-24.4c.2-.3.1-.6-.1-.9-.2-.3-.5-.4-.8-.4l-3.5.5c-.2-1.7-1-3.3-2.3-4.6-1.8-1.7-4.3-2.5-7-2.1-.1 0-.3.1-.4.1h-.3c-10.7 0-24.9 6.4-33.8 15.5-3.8 3.9-6.2 7.2-8.2 10.2l-2.5 3.6-.5.6c-2.1 2.8-4.7 5.7-7.3 8.1.6-2.5 1-5.3 1.4-8.2.9-6 1.8-12.9 4.8-19.4.1-.2.1-.5 0-.7-.1-.2-.3-.4-.5-.5l-6-2.3c-.4-.1-.8 0-1 .3-.5.8-1.2 1.8-1.9 3-3.6 5.6-9.7 15-15.7 23l-.5.7c-6.7 8.8-11.5 13.4-14.3 13.8-.4.1-.8 0-.9-.1-.2-.2-.2-1.1.8-2.9l17.1-32.3c.2-.3.1-.6-.1-.9-.2-.3-.5-.4-.8-.4l-8 1.2c-.3 0-.5.2-.6.4l-12.5 23.4-.5.6c-8.4 10.9-12.4 13.5-14.3 13.8-.4.1-.8 0-.9-.1-.2-.2-.2-1.1.8-2.9l11.5-21.8c1.8-3.5 2-6.7.5-8.9-1.2-1.7-3.3-2.5-5.7-2.1-2.4.4-4.9 1.6-7.5 3.8l10-18.9c.2-.3.1-.6-.1-.9-.2-.3-.5-.4-.8-.4l-8 1.2c-.3 0-.5.2-.6.4l-31.8 59.8c-.2.3-.1.6.1.9.2.2.4.4.7.4h.1l8-1.2c.3 0 .5-.2.6-.4l12.1-22.8c8.9-12.5 13.2-13.8 13.6-13.5.1.1.3 1-.8 3.1l-10.3 19.5c-2 3.7-2.2 7.2-.5 9.5 1.4 1.9 3.8 2.7 6.9 2.3 3.5-.5 7.4-2.9 12-7.3.3 1.2.8 2.2 1.7 3 1.4 1.3 3.5 1.7 6 1.4 3.9-.6 8.3-3.5 13.5-8.8.5 1.4 2.7 6.4 9.6 5.4.6-.1 1.2-.2 1.7-.4l.5-.1c.1 0 .1 0 .2-.1 0 0 .1 0 .1-.1 7.5-2.1 14.2-8.4 18.6-13.3 2.8-2.9 4.8-5.7 6.6-8.3 2.2-3.2 4.2-6.1 7.7-9.6 5.7-5.8 13.3-10.8 20.3-13.5-1.6 1.6-2.9 3.5-4 5.5l-11.2 21c-2 3.7-2.2 7.2-.5 9.5 1.4 1.9 3.8 2.7 6.9 2.3 2.9-.4 6.6-2.6 10.4-6.1.4.9 1 1.7 1.7 2.3 1.4 1.1 3.4 1.5 5.8 1.1 3.5-.5 7.4-2.9 11.9-7.3.3 1.2.8 2.2 1.7 3 1.4 1.3 3.5 1.8 6 1.4 2.2-.3 4.7-1.5 7.3-3.4l-.1.2c-.2.3-.1.6.1.9.2.3.5.4.8.4l8.1-1.2c.3 0 .5-.2.6-.4l12.1-23c8.9-12.4 13-13.6 13.5-13.3.1 0 .3.9-.8 3.1l-10.4 19.5c-2 3.7-2.2 7.2-.5 9.5 1.4 1.9 3.8 2.7 6.9 2.3 3.5-.5 7.4-2.9 12-7.3.3 1.2.8 2.2 1.7 3 1.4 1.3 3.5 1.8 6 1.4 5.7-.8 12.7-6.8 21.3-18.1.2-.3.2-.6.1-.9-.7-1.2-2.2-2.3-3.5-2.7-.3-.1-.7 0-.9.3l-.6.7c-8.3 10.9-12.4 13.5-14.3 13.8-.5.1-.8 0-.8-.1 0 0-.4-.6.8-2.9l16.9-36.2 6-.9c.3 0 .5-.2.6-.4l2.3-4.2c.2-.3.1-.6 0-.9-.2-.3-.5-.4-.8-.4l-4.9.7 6.7-12.6c-.1 0-.1-.3-.3-.6zm-164.6 65.1c-1 6.7-1.9 13-6.2 13.7-2 .3-2.8-1.7-2.8-1.8-.1-.2-.3-.4-.5-.5h-.3c-.2 0-.3 0-.5.1l-2.6 1.7c1.7-1.9 3.4-4 5.2-6.4 3.2-4.2 6.2-8.5 8.6-12.1-.4 1.7-.6 3.5-.9 5.3zm55.2-5c-5.1 8.7-9.7 12.3-12.2 12.6-.5.1-.8 0-.8-.1 0 0-.4-.6.8-2.9l11.1-21c1.9-3.6 4.7-5.3 6.5-5.3.4 0 .7.1.9.2 1.1.6 1 2.4-.1 4.7l-6.2 11.8zM386.4 627.2c.5.7 1.1 1.4 1.7 2 2.3 2.3 5 3.5 7.8 3.5 3.5 0 6.9-2 9.4-5.5 1.4-2 4-3.2 6.9-3.2 2.8 0 5.4 1.2 6.8 3.1l1.1 1.5c.4.6.8 1.2 1.2 1.7.1.2.4.2.6.1l3.9-2.8c.2-.1.2-.4.1-.6-.7-1-1.5-2.1-2.3-3.2-2.5-3.4-6.7-5.5-11.4-5.5-4.6 0-8.9 1.9-11.4 5.3-1.5 2-3.2 3-4.9 3-1.7 0-3.4-.9-4.9-3v.1c-.5-.7-1.1-1.4-1.6-2.1l-1.6-2.2c-.1-.1-.2-.1-.3-.2-.1 0-.2 0-.3.1l-3.8 2.8c-.1.1-.2.2-.2.3s0 .2.1.3l1 1.3c.5 1.2 1.3 2.2 2.1 3.2z"/>
  <path d="M380 635.5l3.2 4.4c.4.5.8 1 1.2 1.4 2.6 2.6 6.4 4.1 10.6 4.1 4.9 0 9.4-2.1 11.9-5.5 1.5-2 3.2-3.1 4.9-3.1 1.7 0 3.4 1.1 4.9 3.1l2.3 3.2c.1.2.4.2.6.1l3.9-2.8c.1-.1.2-.2.2-.3 0-.1 0-.2-.1-.3l-2.3-3.2c-2.6-3.5-5.9-5.5-9.4-5.5s-6.9 1.9-9.5 5.5c-1.4 2-4.2 3.2-7.3 3.2-3.1 0-5.8-1.2-7.3-3.2l-3.2-4.4c-.1-.1-.2-.2-.3-.2-.1 0-.2 0-.3.1l-3.8 2.8c-.3.1-.4.4-.2.6zM404.7 12.1l332.6 332.6 6-6L407.7 3l-3-3L66.5 338.1l6.1 6.1"/>
  <path d="M404.7 853.4l-327-327-6.1 6.1 330 330 3.1 3L737 533.2l-6-6.1M798.9 373.7l-.2-1 1-.2-.7-4.7-1 .2-.4-2.7-51.8 8.7c-.6-1.6-2.2-2.2-3.8-2.2h-8c-2.3 0-6.1.7-6.1 2.9v1.2l-73 11.6c-4.6-9.9-14.1-16.8-25.7-16.8-14.9 0-27 11.2-28.7 25.4l-76.6 12v-20.4h11.4c2.3 0 4-2.3 4-4.5v-8.3c0-2.3-1.7-4.2-4-4.2l-38.8-.1c-2.3 0-4 1.7-4 4v8.5c0 2.3 1.7 4.5 4 4.5h11.4v22.9l-95 14.9v-35.9c2 2.4 4 5.9 4 9.9v8.6c0 2.3 2.5 4.6 4.8 4.6h8.1c2.3 0 4-2 4-4.3v-8.7c0-13.1-8.9-24.4-20.9-27.9v-10.1h-5v9.1c0-.1-2.7-.2-3.8-.2-1.3 0-.2.1-4.2.3v-9.2h-4V372c-12 3.7-20.2 14.8-20.2 27.7 0 8 .1 8 6.1 16.1l8.9 13.1-85.8 13.3v-67.5c0-2.3.2-2.9-1.9-2.9h-8c-2.3 0-6.1.7-6.1 2.9v70l-70 11.2v-2c0-8.3-3.3-15.6-8.8-20.9 5.6-5.3 8.8-12.8 8.8-21.2v-12.1c0-15.9-12.1-27.9-28.2-27.9h-20.9c-4.5 0-8 3-8.1 7.5v85.9l-71.3 11.1c1.2-3.1 2.4-6.6 2.4-10.2V454c0-8.3-3.3-15.9-9.1-21.2 5.8-5.3 9.1-12.6 9.1-20.9v-12.1c0-16.1-13.7-29.2-29.6-29.2H41.9c-4.5 0-8.2 3.5-8.2 8.1V485L0 490.3l1.2 8.4 35-5.5c1.4 1.3 3.2 2.1 5.3 2.1h21.2c8.4 0 15.2-3.7 20.5-9.6l76.7-12.2v17.7c0 2 2.7 4 4.9 4h8.1c2 0 4-2 4-4V471l26-4v24.3c0 2 2.4 6.4 4.7 6.4h8.1c2.3 0 3.3-4.4 3.3-6.4v-26.8l70-11.2v38c0 2.3 3.8 6.4 6.1 6.4h8.1c2.3 0 1.9-4.2 1.9-6.4v-40.5l91-14v39.1c-4-2.3-4.1-5.7-4.1-9.5l.1-8.6c0-2.3-1.7-4-4-4H380c-2.3 0-4 1.8-4 4l-.2 8.6c0 12.9 8.2 24 20.2 27.7v19.7h4V495c4 .2 3 .3 4.2.3 1.1 0 3.8-.1 3.8-.2v18.6h5v-19.6c12-3.5 20.9-14.7 20.9-27.8 0-8.1 0-8.1-6.1-16.1l-12.4-16.4 92.6-14.5v72c0 2 1.7 4 4 4h8c2.3 0 4-2 4-4v-74.5l74-12v61.3c0 16.1 13.5 29.2 29.6 29.2 15.9 0 29.4-13.1 29.4-29.2v-66.5c0-1.3-.3-2.6-.4-3.9l71.4-11.2v102.8c0 4.3 4.6 8.1 9.1 8.1h29.3c2.3 0 3.6-2 3.6-4v-8.1c0-2.3.1-5.5-2.1-5.5h-21.7v-96.5l52.7-7.6zm-750 14h13.8c7.1 0 12.8 5.3 12.8 12.6v11.9c0 7-6.1 12.7-13.2 12.7l-13.5-.1v-37.1zm28 78.4c0 7.1-7.1 11.6-14.2 11.6H48.9v-37h13.8l.7.1c7 0 13.5 5.9 13.5 13.2v12.1zm126-7.7l-26 4v-21.6h13.8c7 0 12.2 6 12.2 13v4.6zm0-46.7c0 7.3-5.2 13-12.2 13h-12.9v-37h12.9c7 0 12.2 4.8 12.2 11.9v12.1zm193-3.1l-3.5-4.7c-.8-1-.7-1-.7-4.3 0-3.8.1-7.2 4.1-9.5v18.5zm12 70.1c0 .3-2.6.5-3.8.5-1.3 0-.2-.3-4.2-.6v-37.5l8 9.3v28.3zm0-54.5l-8-9.3v-27.5c4-.4 2.9-.6 4.2-.6 1.1 0 3.8.2 3.8.5v36.9zm9 37.9c.8 1 .7 1 .7 4.3 0 4-2.8 7.6-4.8 9.9v-19.6l4.1 5.4zm212.8-75.3c3.3 0 6.4 1.3 8.7 3.4l-20.1 3.1c2.3-3.9 6.5-6.5 11.4-6.5zm14.2 79.3c0 7.3-7.8 13.1-14.9 13.1-7.3 0-15.1-5.8-15.1-13.1v-63.9l27.9-4.1c.1.5 2.1.9 2.1 1.4v66.6z"/>
</g>
</svg>
