<?xml version="1.0" encoding="utf-8"?>
<!-- Generator: Adobe Illustrator 19.1.0, SVG Export Plug-In . SVG Version: 6.00 Build 0)  -->
<svg version="1.1" id="Ebene_1" xmlns="http://www.w3.org/2000/svg" xmlns:xlink="http://www.w3.org/1999/xlink" x="0px" y="0px"
	 viewBox="0 0 100 51.5" enable-background="new 0 0 100 51.5" xml:space="preserve">
<g>
	<path fill="#1A171B" d="M17.9,21.7c4.8,4.8,10.4,7.4,16.3,7.4c7.4,0,14.6-4.1,20-11.6c3.5-4.8,9.6-7.7,16.4-7.7
		c6.8,0,12.9,2.9,16.3,7.6l5.1,7.2l8-5.7l-5.2-7.2C89.6,4.4,80.5,0,70.5,0c-9.9,0-19,4.4-24.3,11.7c-3.5,4.9-7.8,7.6-12.1,7.6
		c-4.2,0-8.4-2.7-12-7.7L15,1.8L7.1,7.6l7.1,9.8C15.4,19,16.6,20.4,17.9,21.7z"/>
	<path fill="#1A171B" d="M69.6,22.5c-7.4,0-14.5,4.1-20,11.6c-3.4,4.7-10.1,7.6-17.3,7.6c-7.4,0-13.8-2.9-17.3-7.7l-7.1-9.8L0,30
		l7.1,9.8c0.8,1.1,1.6,2.1,2.6,3c5.5,5.5,13.6,8.6,22.6,8.7c10.5,0,20-4.3,25.3-11.7c3.5-4.9,7.8-7.6,12.1-7.6c4.2,0,8.6,2.7,12,7.5
		l5.2,7.2l7.9-5.7l-5.2-7.2C84.2,26.6,77,22.5,69.6,22.5z"/>
</g>
</svg>
