<?xml version="1.0" encoding="utf-8"?>
<!-- Generator: Adobe Illustrator 19.1.0, SVG Export Plug-In . SVG Version: 6.00 Build 0)  -->
<svg version="1.1" id="Ebene_1" xmlns="http://www.w3.org/2000/svg" xmlns:xlink="http://www.w3.org/1999/xlink" x="0px" y="0px"
	 viewBox="0 0 799.8 865.5" enable-background="new 0 0 799.8 865.5" xml:space="preserve">
<g>
	<path d="M508.5,215.3c0,0,0.1,0,0.1,0l4.7-0.7c0.2,0,0.4-0.2,0.6-0.3l9.3-12.2c0.2-0.3,0.2-0.7,0.1-1c-0.2-0.3-0.5-0.5-0.9-0.4
		l-7.3,1.1c-0.3,0-0.5,0.2-0.6,0.4l-6.7,11.8c-0.2,0.3-0.1,0.6,0,0.9C507.9,215.2,508.2,215.3,508.5,215.3z"/>
	<path d="M265.3,291.9c0-0.2-0.1-0.4-0.3-0.6l-4.3-3.5c-0.3-0.3-0.8-0.3-1.2,0.1c-5.2,5.4-6.8,11.9-4.2,16.9
		c1.9,3.7,5.8,5.9,10.5,5.9c0.8,0,1.6-0.1,2.4-0.2c8.8-1.3,16.3-7.8,22.7-19.8l36.5-67.9c0.1-0.1,0.2-0.2,0.3-0.3
		c0.1-0.3,0.1-0.6-0.1-0.8l-4.1-6.4c-0.2-0.4-0.7-0.5-1.1-0.3c-0.1,0.1-11.3,5.5-19.6,6.8c-1.1,0.2-6.7,1-11.2,1.6
		c-2.5,0.4-4.7,0.7-5.3,0.8c-12,1.8-20.3,9.6-20.3,19c0,4.7,2.6,8.5,6.9,10.2c0.4,0.1,0.7,0,1-0.3l8.2-10.4c0.2-0.2,0.2-0.5,0.2-0.7
		c-0.1-0.3-0.3-0.5-0.5-0.6c-1.5-0.6-3.3-0.3-5,0c-0.9,0.1-2.3,0.4-2.6,0.2c0,0,0,0,0-0.1c0-3.7,4.3-8.3,10.8-9.2
		c0.8-0.1,3.9-0.5,7.2-0.9c4.2-0.5,8.9-1.1,10.1-1.3c3.7-0.5,10.1-2.2,14.4-4.2l-34.1,63.6c-4.2,8-8.7,12.2-13.5,13
		c-2.9,0.4-5.1-0.3-6-2c-1.1-2-0.2-5,2.2-7.9C265.2,292.3,265.3,292.1,265.3,291.9z"/>
	<path d="M367,243.7L367,243.7c3,0,5.4-3.8,5.4-6.8c0-1.5-0.6-3.1-1.6-4c-1.1-0.9-2.5-1.5-4-1.3c-3,0.5-5.3,3.1-5.3,6.1
		c0,1.5,0.6,3.1,1.6,4c0.8,0.7,1.9,1.4,3.1,1.4C366.4,243.1,366.7,243.7,367,243.7z"/>
	<path d="M473.7,227.2c0.3,0,0.6,0.6,0.8,0.6h0c3.1,0,5.4-3.7,5.4-6.7c0-1.5-0.6-3.2-1.6-4.1c-1.1-0.9-2.5-1.4-4-1.2
		c-3,0.4-5.3,3.1-5.3,6.2c0,1.5,0.6,3,1.6,3.9C471.4,226.5,472.5,227.2,473.7,227.2z"/>
	<path d="M541.1,198.4c-0.2-0.3-0.5-0.4-0.8-0.4l-8,1.2c-0.3,0-0.5,0.2-0.6,0.4l-7.3,13.7l-6.8,1c-0.3,0-0.5,0.2-0.6,0.4l-2.3,4.2
		c-0.2,0.3-0.1,0.6,0,0.9c0.2,0.3,0.5,0.4,0.8,0.4l5.7-0.8L508.4,247c-7.9,10.3-11.8,12.8-13.7,13.1c-0.5,0.1-0.8,0-0.8-0.1
		c0,0-0.4-0.6,0.8-2.9l11.5-21.8c1.8-3.5,2-6.7,0.5-8.9c-1.2-1.7-3.3-2.5-5.7-2.1c-2.4,0.4-4.9,1.6-7.4,3.7l0.3-0.5
		c0.2-0.3,0.1-0.6-0.1-0.9c-0.2-0.3-0.5-0.4-0.8-0.4l-8,1.2c-0.3,0-0.5,0.2-0.6,0.4l-12.5,23.4l-0.5,0.6
		c-6.7,8.8-11.5,13.4-14.3,13.8c-0.5,0.1-0.8,0-0.8-0.1c0,0-0.4-0.6,0.8-2.9l17.1-32.3c0.2-0.3,0.1-0.6-0.1-0.9
		c-0.2-0.3-0.5-0.4-0.8-0.4l-8,1.2c-0.3,0-0.5,0.2-0.6,0.4L452.3,254l-0.5,0.6c-6.7,8.8-11.5,13.4-14.3,13.8c-0.5,0.1-0.8,0-0.8-0.1
		c0,0-0.4-0.6,0.8-2.9l12.8-24.4c0.2-0.3,0.1-0.6-0.1-0.9c-0.2-0.3-0.5-0.4-0.8-0.4l-3.5,0.5c-0.2-1.7-1-3.3-2.3-4.6
		c-1.8-1.7-4.3-2.5-7-2.1c-0.1,0-0.3,0.1-0.4,0.1c-0.1,0-0.2,0-0.3,0c-10.7,0-24.9,6.4-33.8,15.5c-3.8,3.9-6.2,7.2-8.2,10.2
		l-2.5,3.6l-0.5,0.6c-2.1,2.8-4.7,5.7-7.3,8.1c0.6-2.5,1-5.3,1.4-8.2c0.9-6,1.8-12.9,4.8-19.4c0.1-0.2,0.1-0.5,0-0.7
		c-0.1-0.2-0.3-0.4-0.5-0.5l-6-2.3c-0.4-0.1-0.8,0-1,0.3c-0.5,0.8-1.2,1.8-1.9,3c-3.6,5.6-9.7,15-15.7,23l-0.5,0.7
		c-6.7,8.8-11.5,13.4-14.3,13.8c-0.4,0.1-0.8,0-0.9-0.1c-0.2-0.2-0.2-1.1,0.8-2.9l17.1-32.3c0.2-0.3,0.1-0.6-0.1-0.9
		c-0.2-0.3-0.5-0.4-0.8-0.4l-8,1.2c-0.3,0-0.5,0.2-0.6,0.4l-12.5,23.4l-0.5,0.6c-8.4,10.9-12.4,13.5-14.3,13.8
		c-0.4,0.1-0.8,0-0.9-0.1c-0.2-0.2-0.2-1.1,0.8-2.9l11.5-21.8c1.8-3.5,2-6.7,0.5-8.9c-1.2-1.7-3.3-2.5-5.7-2.1
		c-2.4,0.4-4.9,1.6-7.5,3.8l10-18.9c0.2-0.3,0.1-0.6-0.1-0.9c-0.2-0.3-0.5-0.4-0.8-0.4l-8,1.2c-0.3,0-0.5,0.2-0.6,0.4l-31.8,59.8
		c-0.2,0.3-0.1,0.6,0.1,0.9c0.2,0.2,0.4,0.4,0.7,0.4c0,0,0.1,0,0.1,0l8-1.2c0.3,0,0.5-0.2,0.6-0.4l12.1-22.8
		c8.9-12.5,13.2-13.8,13.6-13.5c0.1,0.1,0.3,1-0.8,3.1l-10.3,19.5c-2,3.7-2.2,7.2-0.5,9.5c1.4,1.9,3.8,2.7,6.9,2.3
		c3.5-0.5,7.4-2.9,12-7.3c0.3,1.2,0.8,2.2,1.7,3c1.4,1.3,3.5,1.7,6,1.4c3.9-0.6,8.3-3.5,13.5-8.8c0.5,1.4,2.7,6.4,9.6,5.4
		c0.6-0.1,1.2-0.2,1.7-0.4l0.5-0.1c0.1,0,0.1,0,0.2-0.1c0,0,0.1,0,0.1-0.1c7.5-2.1,14.2-8.4,18.6-13.3c2.8-2.9,4.8-5.7,6.6-8.3
		c2.2-3.2,4.2-6.1,7.7-9.6c5.7-5.8,13.3-10.8,20.3-13.5c-1.6,1.6-2.9,3.5-4,5.5l-11.2,21c-2,3.7-2.2,7.2-0.5,9.5
		c1.4,1.9,3.8,2.7,6.9,2.3c2.9-0.4,6.6-2.6,10.4-6.1c0.4,0.9,1,1.7,1.7,2.3c1.4,1.1,3.4,1.5,5.8,1.1c3.5-0.5,7.4-2.9,11.9-7.3
		c0.3,1.2,0.8,2.2,1.7,3c1.4,1.3,3.5,1.8,6,1.4c2.2-0.3,4.7-1.5,7.3-3.4l-0.1,0.2c-0.2,0.3-0.1,0.6,0.1,0.9c0.2,0.3,0.5,0.4,0.8,0.4
		l8.1-1.2c0.3,0,0.5-0.2,0.6-0.4l12.1-23c8.9-12.4,13-13.6,13.5-13.3c0.1,0,0.3,0.9-0.8,3.1l-10.4,19.5c-2,3.7-2.2,7.2-0.5,9.5
		c1.4,1.9,3.8,2.7,6.9,2.3c3.5-0.5,7.4-2.9,12-7.3c0.3,1.2,0.8,2.2,1.7,3c1.4,1.3,3.5,1.8,6,1.4c5.7-0.8,12.7-6.8,21.3-18.1
		c0.2-0.3,0.2-0.6,0.1-0.9c-0.7-1.2-2.2-2.3-3.5-2.7c-0.3-0.1-0.7,0-0.9,0.3l-0.6,0.7c-8.3,10.9-12.4,13.5-14.3,13.8
		c-0.5,0.1-0.8,0-0.8-0.1c0,0-0.4-0.6,0.8-2.9l16.9-36.2l6-0.9c0.3,0,0.5-0.2,0.6-0.4l2.3-4.2c0.2-0.3,0.1-0.6,0-0.9
		c-0.2-0.3-0.5-0.4-0.8-0.4l-4.9,0.7l6.7-12.6C541.3,199,541.3,198.7,541.1,198.4z M376.5,263.5c-1,6.7-1.9,13-6.2,13.7
		c-2,0.3-2.8-1.7-2.8-1.8c-0.1-0.2-0.3-0.4-0.5-0.5c-0.1,0-0.2,0-0.3,0c-0.2,0-0.3,0-0.5,0.1l-2.6,1.7c1.7-1.9,3.4-4,5.2-6.4
		c3.2-4.2,6.2-8.5,8.6-12.1C377,259.9,376.8,261.7,376.5,263.5z M431.7,258.5c-5.1,8.7-9.7,12.3-12.2,12.6c-0.5,0.1-0.8,0-0.8-0.1
		c0,0-0.4-0.6,0.8-2.9l11.1-21c1.9-3.6,4.7-5.3,6.5-5.3c0.4,0,0.7,0.1,0.9,0.2c1.1,0.6,1,2.4-0.1,4.7L431.7,258.5z"/>
	<path d="M386.4,627.2c0.5,0.7,1.1,1.4,1.7,2c2.3,2.3,5,3.5,7.8,3.5c3.5,0,6.9-2,9.4-5.5c1.4-2,4-3.2,6.9-3.2c2.8,0,5.4,1.2,6.8,3.1
		l1.1,1.5c0.4,0.6,0.8,1.2,1.2,1.7c0.1,0.2,0.4,0.2,0.6,0.1l3.9-2.8c0.2-0.1,0.2-0.4,0.1-0.6c-0.7-1-1.5-2.1-2.3-3.2
		c-2.5-3.4-6.7-5.5-11.4-5.5c-4.6,0-8.9,1.9-11.4,5.3c-1.5,2-3.2,3-4.9,3h0c-1.7,0-3.4-0.9-4.9-3l0,0.1c-0.5-0.7-1.1-1.4-1.6-2.1
		l-1.6-2.2c-0.1-0.1-0.2-0.1-0.3-0.2c-0.1,0-0.2,0-0.3,0.1l-3.8,2.8c-0.1,0.1-0.2,0.2-0.2,0.3s0,0.2,0.1,0.3l1,1.3
		C384.8,625.2,385.6,626.2,386.4,627.2z"/>
	<path d="M380,635.5l3.2,4.4c0.4,0.5,0.8,1,1.2,1.4c2.6,2.6,6.4,4.1,10.6,4.1c4.9,0,9.4-2.1,11.9-5.5c1.5-2,3.2-3.1,4.9-3.1
		c1.7,0,3.4,1.1,4.9,3.1l0,0l2.3,3.2c0.1,0.2,0.4,0.2,0.6,0.1l3.9-2.8c0.1-0.1,0.2-0.2,0.2-0.3c0-0.1,0-0.2-0.1-0.3l-2.3-3.2
		c-2.6-3.5-5.9-5.5-9.4-5.5c-3.5,0-6.9,1.9-9.5,5.5c-1.4,2-4.2,3.2-7.3,3.2c-3.1,0-5.8-1.2-7.3-3.2l-3.2-4.4
		c-0.1-0.1-0.2-0.2-0.3-0.2c-0.1,0-0.2,0-0.3,0.1l-3.8,2.8C379.9,635,379.8,635.3,380,635.5z"/>
	<polygon points="404.7,12.1 737.3,344.7 743.3,338.7 407.7,3 404.7,0 66.5,338.1 72.6,344.2 	"/>
	<polygon points="404.7,853.4 77.7,526.4 71.6,532.5 401.6,862.5 404.7,865.5 737,533.2 731,527.1 	"/>
	<path d="M798.9,373.7l-0.2-1l1-0.2l-0.7-4.7l-1,0.2l-0.4-2.7l-51.8,8.7c-0.6-1.6-2.2-2.2-3.8-2.2H734c-2.3,0-6.1,0.7-6.1,2.9v1.2
		l-73,11.6c-4.6-9.9-14.1-16.8-25.7-16.8c-14.9,0-27,11.2-28.7,25.4l-76.6,12v-20.4h11.4c2.3,0,4-2.3,4-4.5l0-8.3
		c0-2.3-1.7-4.2-4-4.2l-38.8-0.1c-2.3,0-4,1.7-4,4l0,8.5c0,2.3,1.7,4.5,4,4.5h11.4v22.9l-95,14.9v-35.9c2,2.4,4,5.9,4,9.9v8.6
		c0,2.3,2.5,4.6,4.8,4.6h8.1c2.3,0,4-2,4-4.3l0-8.7c0-13.1-8.9-24.4-20.9-27.9v-10.1h-5v9.1c0-0.1-2.7-0.2-3.8-0.2
		c-1.3,0-0.2,0.1-4.2,0.3v-9.2h-4V372c-12,3.7-20.2,14.8-20.2,27.7c0,8,0.1,8,6.1,16.1l8.9,13.1l-85.8,13.3v-67.5
		c0-2.3,0.2-2.9-1.9-2.9H295c-2.3,0-6.1,0.7-6.1,2.9v70l-70,11.2v-2c0-8.3-3.3-15.6-8.8-20.9c5.6-5.3,8.8-12.8,8.8-21.2v-12.1
		c0-15.9-12.1-27.9-28.2-27.9h-20.9c-4.5,0-8,3-8.1,7.5l0,85.9l-71.3,11.1c1.2-3.1,2.4-6.6,2.4-10.2V454c0-8.3-3.3-15.9-9.1-21.2
		c5.8-5.3,9.1-12.6,9.1-20.9v-12.1c0-16.1-13.7-29.2-29.6-29.2l-21.3,0c-4.5,0-8.2,3.5-8.2,8.1V485L0,490.3l1.2,8.4l35-5.5
		c1.4,1.3,3.2,2.1,5.3,2.1l21.2,0c8.4,0,15.2-3.7,20.5-9.6l76.7-12.2v17.7c0,2,2.7,4,4.9,4l8.1,0c2,0,4-2,4-4V471l26-4v24.3
		c0,2,2.4,6.4,4.7,6.4h8.1c2.3,0,3.3-4.4,3.3-6.4v-26.8l70-11.2v38c0,2.3,3.8,6.4,6.1,6.4h8.1c2.3,0,1.9-4.2,1.9-6.4v-40.5l91-14
		v39.1c-4-2.3-4.1-5.7-4.1-9.5l0.1-8.6c0-2.3-1.7-4-4-4h-8.1c-2.3,0-4,1.8-4,4l-0.2,8.6c0,12.9,8.2,24,20.2,27.7v19.7h4V495
		c4,0.2,3,0.3,4.2,0.3c1.1,0,3.8-0.1,3.8-0.2v18.6h5v-19.6c12-3.5,20.9-14.7,20.9-27.8c0-8.1,0-8.1-6.1-16.1l-12.4-16.4l92.6-14.5
		v72c0,2,1.7,4,4,4l8,0c2.3,0,4-2,4-4v-74.5l74-12v61.3c0,16.1,13.5,29.2,29.6,29.2c15.9,0,29.4-13.1,29.4-29.2v-66.5
		c0-1.3-0.3-2.6-0.4-3.9l71.4-11.2v102.8c0,4.3,4.6,8.1,9.1,8.1l29.3,0c2.3,0,3.6-2,3.6-4v-8.1c0-2.3,0.1-5.5-2.1-5.5h-21.7l0-96.5
		L798.9,373.7z M48.9,387.7h13.8c7.1,0,12.8,5.3,12.8,12.6l0,11.9c0,7-6.1,12.7-13.2,12.7l-13.5-0.1V387.7z M76.9,466.1
		c0,7.1-7.1,11.6-14.2,11.6H48.9v-37h13.8l0.7,0.1c7,0,13.5,5.9,13.5,13.2V466.1z M202.9,458.4l-26,4v-21.6h13.8c7,0,12.2,6,12.2,13
		V458.4z M202.9,411.7c0,7.3-5.2,13-12.2,13h-12.9l0-37h12.9c7,0,12.2,4.8,12.2,11.9V411.7z M395.9,408.6l-3.5-4.7
		c-0.8-1-0.7-1-0.7-4.3c0-3.8,0.1-7.2,4.1-9.5V408.6z M407.9,478.7c0,0.3-2.6,0.5-3.8,0.5c-1.3,0-0.2-0.3-4.2-0.6v-37.5l8,9.3V478.7
		z M407.9,424.2l-8-9.3v-27.5c4-0.4,2.9-0.6,4.2-0.6c1.1,0,3.8,0.2,3.8,0.5V424.2z M416.9,462.1c0.8,1,0.7,1,0.7,4.3
		c0,4-2.8,7.6-4.8,9.9v-19.6L416.9,462.1z M629.7,386.8c3.3,0,6.4,1.3,8.7,3.4l-20.1,3.1C620.6,389.4,624.8,386.8,629.7,386.8z
		 M643.9,466.1c0,7.3-7.8,13.1-14.9,13.1c-7.3,0-15.1-5.8-15.1-13.1v-63.9l27.9-4.1c0.1,0.5,2.1,0.9,2.1,1.4V466.1z"/>
</g>
</svg>
